<svg width="104" height="21" viewBox="0 0 104 21" fill="none" xmlns="http://www.w3.org/2000/svg">
<path d="M4.69356 10.4563L2.35805 12.8047L0 10.4563L2.35718 8.08711L4.69356 10.4563ZM10.4032 4.71756L14.4257 8.76068L16.7838 6.39231L10.4032 0L4.02255 6.41323L6.3806 8.78159L10.4032 4.71756ZM18.4491 8.08711L16.1127 10.4563L18.4699 12.8256L20.8262 10.4563L18.4491 8.08711ZM10.4032 16.1951L6.3806 12.1311L4.02255 14.5003L10.4032 20.9127L16.7838 14.4995L14.4257 12.1311L10.4032 16.1951ZM10.4032 12.8055L12.7603 10.4354L10.4032 8.08799L8.04597 10.4563L10.4032 12.8055ZM35.1921 13.0495V13.0094C35.1921 11.4776 34.379 10.7012 33.0586 10.1906C33.8709 9.74183 34.5619 9.00553 34.5619 7.7194V7.67932C34.5619 5.8817 33.1193 4.71756 30.8029 4.71756H25.4999V16.1751H30.9251C33.5051 16.1951 35.1921 15.1321 35.1921 13.0495ZM32.0625 8.14898C32.0625 9.0064 31.3716 9.3532 30.2541 9.3532H27.9385V6.92297H30.4171C31.4739 6.92297 32.0625 7.35169 32.0625 8.10803V8.14898ZM32.6928 12.7236C32.6928 13.5811 32.0226 13.9697 30.9242 13.9697H27.9385V11.4567H30.8436C32.1241 11.4567 32.6928 11.9272 32.6928 12.7027V12.7236ZM40.4544 16.1951V4.71756H37.9351V16.1751H40.4544V16.1951ZM53.9464 16.1951V4.71756H51.467V11.7843L46.1232 4.71756H43.8068V16.1751H46.2862V8.90445L51.8129 16.1951H53.9464ZM67.8433 16.1951L62.9477 4.65656H60.6322L55.7349 16.1951H58.3157L59.3517 13.622H64.1675L65.2035 16.1951H67.845H67.8433ZM63.272 11.3957H60.2447L61.7687 7.67932L63.272 11.3957ZM79.8121 16.1951V4.71756H77.3327V11.7843L71.989 4.71756H69.6725V16.1751H72.1519V8.90445L77.6786 16.1951H79.8121ZM92.7545 14.3365L91.1498 12.7236C90.2552 13.5401 89.4628 14.0708 88.1424 14.0708C86.1918 14.0708 84.8308 12.437 84.8308 10.4764V10.4154C84.8308 8.45483 86.2118 6.84194 88.1424 6.84194C89.2799 6.84194 90.1745 7.33164 91.0683 8.12807L92.673 6.26945C91.6171 5.22817 90.3366 4.49274 88.1832 4.49274C84.6886 4.49274 82.23 7.16783 82.23 10.4154V10.4563C82.23 13.744 84.7285 16.3581 88.0818 16.3581C90.276 16.379 91.5764 15.6026 92.7545 14.3365ZM103.463 16.1951V13.9488H97.2651V11.5386H102.65V9.29221H97.2651V6.96393H103.381V4.71756H94.7866V16.1751H103.463V16.1951Z" fill="#F0B90B"/>
</svg>
