<svg width="81" height="26" viewBox="0 0 81 26" fill="none" xmlns="http://www.w3.org/2000/svg">
<path d="M70.1592 14.1608C70.1592 15.5911 69.3115 16.2386 68.3263 16.2386C67.4014 16.2386 66.8777 15.7296 66.8777 14.0552V10.6067H64.5331V15.1363C64.5331 17.1723 65.4424 18.3743 67.3682 18.3743C68.4464 18.3743 69.4014 17.8924 70.1719 17.2295L70.295 18.2239H72.4814V10.6067H70.1562L70.1592 14.1608ZM19.2584 9.60291C19.0879 9.60291 18.9244 9.66912 18.8039 9.78697C18.6833 9.90483 18.6156 10.0647 18.6156 10.2313C18.6156 10.398 18.6833 10.5578 18.8039 10.6757C18.9244 10.7935 19.0879 10.8598 19.2584 10.8598C19.4289 10.8598 19.5923 10.7936 19.7128 10.6758C19.8333 10.558 19.901 10.3982 19.901 10.2316C19.901 10.065 19.8333 9.90527 19.7128 9.78748C19.5923 9.66968 19.4289 9.6035 19.2584 9.6035V9.60291ZM12.8372 0.425781C11.1512 0.425897 9.4818 0.750631 7.92423 1.38144C6.36666 2.01225 4.95144 2.93679 3.75937 4.10226C2.56731 5.26773 1.62174 6.65131 0.976668 8.17401C0.331592 9.69671 -0.000362955 11.3287 -0.000244109 12.9768C-0.000125263 14.6249 0.332065 16.2569 0.977361 17.7795C1.62266 19.3021 2.56842 20.6855 3.76065 21.8508C4.95288 23.0161 6.36824 23.9405 7.9259 24.5711C9.48356 25.2017 11.153 25.5262 12.839 25.5261C16.2438 25.5258 19.5091 24.2034 21.9166 21.8497C24.324 19.496 25.6763 16.3038 25.6761 12.9753C25.6758 9.64691 24.323 6.4549 21.9153 4.10151C19.5075 1.74812 16.242 0.426136 12.8372 0.426371V0.425781ZM18.6762 18.2256C17.9283 19.0333 17.0164 19.6797 15.9987 20.1236C14.981 20.5674 13.8798 20.799 12.7654 20.8036H12.7503C11.6257 20.8021 10.514 20.5694 9.48733 20.1206C8.4607 19.6718 7.5421 19.0169 6.79117 18.1985C6.03349 17.3806 5.46305 16.414 5.11794 15.3634C4.77283 14.3127 4.661 13.2022 4.78992 12.106C4.99568 10.3511 5.80041 8.71529 7.07418 7.46251C8.34796 6.20973 10.0164 5.41313 11.8103 5.20131C12.121 5.16592 12.4341 5.14823 12.7473 5.14823C14.5129 5.14483 16.2292 5.71818 17.6234 6.77723C17.6904 6.82711 17.7384 6.89748 17.7597 6.97711C17.781 7.05674 17.7744 7.14106 17.7411 7.21662C17.7192 7.26707 17.6863 7.31218 17.6445 7.34874L16.7944 8.09305C16.7051 8.17095 16.5896 8.21398 16.4698 8.21396C16.3673 8.21388 16.2672 8.183 16.1833 8.12549C15.3319 7.54308 14.34 7.18732 13.3054 7.09322C12.2707 6.99912 11.2287 7.1699 10.2821 7.58878C9.50521 7.93004 8.81074 8.42764 8.244 9.0491C7.67337 9.66884 7.24484 10.4006 6.98709 11.1955C6.72935 11.9903 6.64836 12.8298 6.74954 13.6577C6.90997 14.98 7.52131 16.2109 8.48497 17.152C9.44864 18.0931 10.7085 18.6894 12.0613 18.8449C12.2905 18.8691 12.5216 18.8821 12.7527 18.8821C13.5502 18.8831 14.34 18.7284 15.0755 18.4271C15.8111 18.1258 16.4778 17.6839 17.0364 17.1275C17.0828 17.0815 17.138 17.045 17.1989 17.02C17.2597 16.995 17.3251 16.982 17.3911 16.9818C17.487 16.9817 17.5808 17.0092 17.6608 17.0608L18.6044 17.6659C18.6502 17.6957 18.689 17.7346 18.7181 17.7802C18.7472 17.8258 18.7661 17.8769 18.7734 17.9302C18.7802 17.9835 18.7751 18.0376 18.7584 18.0888C18.7417 18.1401 18.7139 18.1871 18.6768 18.2268L18.6762 18.2256ZM19.2584 12.126C18.7444 12.126 18.2514 11.9264 17.8879 11.5711C17.5244 11.2158 17.3202 10.7338 17.3202 10.2313C17.3202 9.72883 17.5244 9.2469 17.8879 8.89158C18.2514 8.53625 18.7444 8.33663 19.2584 8.33663C19.7725 8.33663 20.2655 8.53625 20.629 8.89158C20.9924 9.2469 21.1966 9.72883 21.1966 10.2313C21.1966 10.7338 20.9924 11.2158 20.629 11.5711C20.2655 11.9264 19.7725 12.126 19.2584 12.126ZM61.8368 9.68843C62.0593 9.68875 62.277 9.62468 62.4623 9.5043C62.6476 9.38391 62.7923 9.2126 62.8782 9.01194C62.9637 8.81114 62.9864 8.59007 62.9434 8.37667C62.9005 8.16326 62.7938 7.96708 62.6369 7.8129C62.5192 7.69795 62.377 7.6099 62.2204 7.55508C62.0638 7.50025 61.8967 7.48 61.7312 7.49579C61.5656 7.51158 61.4057 7.56301 61.2629 7.64639C61.1201 7.72977 60.998 7.84303 60.9053 7.97804C60.7816 8.15888 60.7154 8.3715 60.7152 8.58906C60.7136 8.80661 60.7785 9.01969 60.9014 9.20103C61.0244 9.38237 61.1999 9.52373 61.4055 9.60704C61.5424 9.66189 61.689 9.68961 61.8368 9.68843ZM44.12 10.4534C41.7332 10.4534 40.2224 12.2605 40.2224 14.3684C40.2224 16.5371 41.8098 18.3749 44.2593 18.3749C46.4778 18.3749 47.6965 16.8078 47.8793 15.7839L45.8612 15.5728C45.6839 15.8218 45.446 16.0238 45.1691 16.1607C44.8921 16.2977 44.5847 16.3652 44.2744 16.3572C43.0738 16.3572 42.5954 15.7084 42.5495 15.1068H48.0181V14.5253C48.0181 12.3077 46.5393 10.4534 44.12 10.4534ZM42.5495 13.558C42.5954 12.9706 43.1963 12.474 44.12 12.474C45.0569 12.474 45.6458 12.983 45.6917 13.558H42.5495ZM78.4906 13.6795C76.7965 13.1369 76.4079 13.0921 76.4079 12.7754C76.4079 12.4587 76.855 12.3389 77.2242 12.3389C77.5941 12.3389 78.1491 12.474 78.1618 12.9411H80.504C80.4726 11.6005 79.2545 10.4563 77.1452 10.4563C75.5434 10.4563 74.0646 11.3292 74.0646 12.7754C74.0646 14.0411 75.0353 14.7176 76.4827 15.1098C78.023 15.5315 78.5172 15.6064 78.5172 16.0263C78.5172 16.3725 77.9772 16.4934 77.5464 16.4934C76.7446 16.4934 76.2058 16.2074 76.1594 15.7703H73.8377C73.8836 17.5468 75.378 18.376 77.5036 18.376C79.3063 18.376 80.8466 17.5916 80.8466 16.0705C80.8479 15.2301 80.4322 14.2811 78.4906 13.6795ZM49.0812 18.2268H51.407V6.93234H49.0812V18.2268ZM60.6809 18.2268H63.0067V10.6067H60.6809V18.2268ZM30.3055 12.881C30.3055 16.0133 32.7399 18.3784 35.7898 18.3784C37.5461 18.3784 38.6085 17.6553 38.9784 17.3392V15.0632C38.7171 15.3799 37.7162 16.2227 36.083 16.2227C34.2187 16.2227 32.6319 14.9128 32.6319 12.8798C32.6319 10.8468 34.2187 9.51975 36.083 9.51975C37.7162 9.51975 38.7171 10.3785 38.9784 10.6946V8.42274C38.6085 8.10603 37.5461 7.38294 35.7892 7.38294C32.7363 7.38294 30.3049 9.748 30.3049 12.8798L30.3055 12.881ZM57.2352 13.6801C55.5405 13.1375 55.1519 13.0927 55.1519 12.776C55.1519 12.4593 55.5984 12.3395 55.9682 12.3395C56.3381 12.3395 56.8925 12.4746 56.9058 12.9417H59.2479C59.2166 11.6011 57.9984 10.4569 55.8892 10.4569C54.2879 10.4569 52.8086 11.3298 52.8086 12.776C52.8086 14.0417 53.7781 14.7182 55.2267 15.1104C56.767 15.5321 57.26 15.607 57.26 16.0269C57.26 16.3731 56.7212 16.494 56.2904 16.494C55.488 16.494 54.9498 16.208 54.9027 15.7709H52.5787C52.6246 17.5474 54.119 18.3766 56.2445 18.3766C58.0473 18.3766 59.587 17.5922 59.587 16.0711C59.587 15.2307 59.1719 14.2817 57.231 13.6801H57.2352Z" fill="url(#paint0_linear_3688_17475)"/>
<defs>
<linearGradient id="paint0_linear_3688_17475" x1="6.35798" y1="27.4753" x2="69.6541" y2="-4.09961" gradientUnits="userSpaceOnUse">
<stop stop-color="#382BC6"/>
<stop offset="1" stop-color="#FF3CAC"/>
</linearGradient>
</defs>
</svg>
