<svg width="76" height="14" viewBox="0 0 76 14" fill="none" xmlns="http://www.w3.org/2000/svg">
<path d="M15.3078 3.90854C12.5525 3.90854 10.3996 6.06983 10.3996 8.96315C10.3996 11.8565 12.4981 13.9993 15.3078 13.9993C18.1176 13.9993 20.2525 11.8195 20.2525 8.94467C20.2525 6.08832 18.154 3.90854 15.3078 3.90854ZM15.3264 11.9141C13.7574 11.9141 12.6076 10.6549 12.6076 8.96387C12.6076 7.25362 13.7388 5.99513 15.3078 5.99513C16.8955 5.99513 18.0446 7.27282 18.0446 8.96387C18.0446 10.6549 16.8955 11.9141 15.3264 11.9141ZM20.8543 6.10752H22.2229V13.8122H24.4123V4.09636H20.8543V6.10752ZM4.88964 5.99441C6.03942 5.99441 6.95165 6.72717 7.29797 7.81705H9.61542C9.19545 5.48717 7.33447 3.90854 4.90822 3.90854C2.1529 3.90854 0 6.06983 0 8.96387C0 11.8579 2.09851 14 4.90822 14C7.28006 14 9.17754 12.4214 9.59751 10.0723H7.29797C6.96956 11.1622 6.05731 11.9141 4.90755 11.9141C3.31989 11.9141 2.20728 10.6549 2.20728 8.96387C2.20798 7.25362 3.30268 5.99441 4.88964 5.99441ZM62.454 8.02408L60.8485 7.78006C60.0823 7.66767 59.5349 7.40445 59.5349 6.78409C59.5349 6.10752 60.2468 5.7696 61.2134 5.7696C62.2717 5.7696 62.947 6.23914 63.0929 7.0096H65.2095C64.9719 5.05533 63.5123 3.90924 61.2685 3.90924C58.951 3.90924 57.4185 5.13076 57.4185 6.8595C57.4185 8.51283 58.4222 9.47183 60.4471 9.77204L62.0526 10.0161C62.8376 10.1285 63.2754 10.4486 63.2754 11.0497C63.2754 11.8202 62.5093 12.1396 61.451 12.1396C60.1552 12.1396 59.4254 11.5947 59.316 10.768H57.163C57.3641 12.6661 58.8052 14 61.4323 14C63.8228 14 65.4097 12.8724 65.4097 10.9366C65.4097 9.20789 64.2606 8.30581 62.454 8.02408ZM23.3176 0.0939072C22.5148 0.0939072 21.9126 0.695056 21.9126 1.52172C21.9126 2.34839 22.5142 2.94954 23.3176 2.94954C24.1204 2.94954 24.7229 2.34839 24.7229 1.52172C24.7229 0.695056 24.1204 0.0939072 23.3176 0.0939072ZM55.448 7.42293C55.448 5.31856 54.2075 3.90924 51.5801 3.90924C49.0987 3.90924 47.7121 5.20616 47.4382 7.19812H49.6096C49.719 6.42766 50.3029 5.7888 51.5437 5.7888C52.657 5.7888 53.2042 6.29604 53.2042 6.91642C53.2042 7.72459 52.2004 7.93089 50.9598 8.06251C49.2812 8.25031 47.2013 8.85146 47.2013 11.1067C47.2013 12.8546 48.4605 13.9815 50.4676 13.9815C52.0365 13.9815 53.0217 13.3049 53.5148 12.2336C53.5878 13.1918 54.2811 13.8122 55.2484 13.8122H56.5256V11.8017H55.4487V7.42293H55.448ZM53.295 9.86595C53.295 11.1629 52.2004 12.1211 50.8681 12.1211C50.0469 12.1211 49.3536 11.764 49.3536 11.0128C49.3536 10.0545 50.4667 9.79125 51.4886 9.67886C52.4739 9.58495 53.0211 9.35942 53.295 8.92688V9.86595ZM41.6728 3.90854C40.45 3.90854 39.4283 4.43498 38.6986 5.31786V0H36.5092V13.8122H38.662V12.5345C39.3917 13.455 40.4322 14 41.6728 14C44.2999 14 46.2891 11.8579 46.2891 8.96387C46.2891 6.06983 44.2635 3.90854 41.6728 3.90854ZM41.3444 11.9141C39.7753 11.9141 38.6256 10.6549 38.6256 8.96387C38.6256 7.27282 39.7933 5.99513 41.3622 5.99513C42.9499 5.99513 44.0624 7.25434 44.0624 8.96387C44.0624 10.6549 42.9133 11.9141 41.3444 11.9141ZM31.2724 3.90854C29.8494 3.90854 28.9185 4.50968 28.3713 5.35555V4.09636H26.1997V13.8115H28.3891V8.53134C28.3891 7.04659 29.3013 5.99441 30.6515 5.99441C31.9107 5.99441 32.6948 6.91499 32.6948 8.24961V13.8122H34.8842V8.081C34.8851 5.63728 33.6629 3.90854 31.2724 3.90854ZM75.8465 8.64445C75.8465 5.86351 73.876 3.90924 71.2302 3.90924C68.4205 3.90924 66.3586 6.08904 66.3586 8.96387C66.3586 11.9895 68.5664 14 71.2668 14C73.5477 14 75.3357 12.6092 75.7915 10.6364H73.5104C73.1821 11.5008 72.3793 11.9895 71.3026 11.9895C69.8973 11.9895 68.8391 11.0875 68.6022 9.50882H75.8459V8.64445H75.8465ZM68.7302 7.89248C69.0774 6.53936 70.0625 5.88201 71.1938 5.88201C72.4343 5.88201 73.3832 6.61476 73.6021 7.89248H68.7302Z" fill="#0052FF"/>
</svg>
