<svg width="104" height="22" viewBox="0 0 104 22" fill="none" xmlns="http://www.w3.org/2000/svg">
<path opacity="0.5" d="M5.02241 11.3694L2.68691 13.7178L0.328857 11.3694L2.68604 9.0002L5.02241 11.3694ZM10.732 5.63064L14.7546 9.67376L17.1126 7.3054L10.732 0.913086L4.35141 7.32631L6.70946 9.69468L10.732 5.63064ZM18.778 9.0002L16.4416 11.3694L18.7988 13.7387L21.1551 11.3694L18.778 9.0002ZM10.732 17.1082L6.70946 13.0442L4.35141 15.4134L10.732 21.8258L17.1126 15.4126L14.7546 13.0442L10.732 17.1082ZM10.732 13.7186L13.0892 11.3485L10.732 9.00107L8.37483 11.3694L10.732 13.7186ZM35.521 13.9626V13.9225C35.521 12.3907 34.7078 11.6143 33.3875 11.1037C34.1998 10.6549 34.8907 9.91862 34.8907 8.63249V8.5924C34.8907 6.79478 33.4482 5.63064 31.1317 5.63064H25.8287V17.0882H31.254C33.8339 17.1082 35.521 16.0452 35.521 13.9626ZM32.3914 9.06207C32.3914 9.91949 31.7004 10.2663 30.583 10.2663H28.2674V7.83606H30.7459C31.8027 7.83606 32.3914 8.26477 32.3914 9.02111V9.06207ZM33.0216 13.6367C33.0216 14.4941 32.3515 14.8828 31.2531 14.8828H28.2674V12.3698H31.1725C32.4529 12.3698 33.0216 12.8403 33.0216 13.6158V13.6367ZM40.7832 17.1082V5.63064H38.264V17.0882H40.7832V17.1082ZM54.2753 17.1082V5.63064H51.7958V12.6974L46.4521 5.63064H44.1357V17.0882H46.6151V9.81754L52.1418 17.1082H54.2753ZM68.1721 17.1082L63.2766 5.56965H60.961L56.0637 17.1082H58.6446L59.6806 14.5351H64.4964L65.5323 17.1082H68.1739H68.1721ZM63.6008 12.3088H60.5735L62.0976 8.5924L63.6008 12.3088ZM80.141 17.1082V5.63064H77.6616V12.6974L72.3178 5.63064H70.0014V17.0882H72.4808V9.81754L78.0075 17.1082H80.141ZM93.0834 15.2496L91.4787 13.6367C90.584 14.4532 89.7916 14.9838 88.4713 14.9838C86.5207 14.9838 85.1596 13.35 85.1596 11.3895V11.3285C85.1596 9.36792 86.5406 7.75502 88.4713 7.75502C89.6087 7.75502 90.5034 8.24473 91.3972 9.04115L93.0019 7.18254C91.946 6.14126 90.6655 5.40583 88.512 5.40583C85.0175 5.40583 82.5588 8.08091 82.5588 11.3285V11.3694C82.5588 14.6571 85.0573 17.2712 88.4106 17.2712C90.6048 17.2921 91.9052 16.5157 93.0834 15.2496ZM103.792 17.1082V14.8619H97.594V12.4517H102.978V10.2053H97.594V7.87701H103.71V5.63064H95.1154V17.0882H103.792V17.1082Z" fill="#F0B90B"/>
</svg>
