<svg width="81" height="26" viewBox="0 0 81 26" fill="none" xmlns="http://www.w3.org/2000/svg">
<path d="M70.2369 14.1266C70.2369 15.5569 69.3892 16.2045 68.4039 16.2045C67.479 16.2045 66.9553 15.6955 66.9553 14.0211V10.5726H64.6108V15.1021C64.6108 17.1381 65.52 18.3401 67.4458 18.3401C68.524 18.3401 69.4791 17.8582 70.2495 17.1953L70.3726 18.1897H72.5591V10.5726H70.2338L70.2369 14.1266ZM19.3361 9.56873C19.1656 9.56873 19.0021 9.63494 18.8815 9.75279C18.761 9.87065 18.6932 10.0305 18.6932 10.1972C18.6932 10.3638 18.761 10.5237 18.8815 10.6415C19.0021 10.7594 19.1656 10.8256 19.3361 10.8256C19.5065 10.8256 19.6699 10.7594 19.7904 10.6416C19.9109 10.5238 19.9786 10.364 19.9786 10.1974C19.9786 10.0309 19.9109 9.87109 19.7904 9.7533C19.6699 9.6355 19.5065 9.56932 19.3361 9.56932V9.56873ZM12.9148 0.391602C11.2289 0.391718 9.55943 0.716452 8.00186 1.34726C6.44429 1.97807 5.02907 2.90261 3.83701 4.06808C2.64494 5.23355 1.69938 6.61713 1.05431 8.13983C0.409229 9.66253 0.0772738 11.2945 0.0773926 12.9426C0.0775115 14.5907 0.409702 16.2227 1.055 17.7453C1.70029 19.2679 2.64606 20.6514 3.83829 21.8167C5.03052 22.982 6.44587 23.9063 8.00353 24.5369C9.5612 25.1675 11.2307 25.492 12.9166 25.4919C16.3215 25.4916 19.5868 24.1692 21.9942 21.8155C24.4016 19.4618 25.754 16.2696 25.7537 12.9412C25.7535 9.61273 24.4007 6.42072 21.9929 4.06733C19.5852 1.71394 16.3197 0.391957 12.9148 0.392191V0.391602ZM18.7539 18.1915C18.006 18.9991 17.0941 19.6455 16.0763 20.0894C15.0586 20.5332 13.9574 20.7649 12.843 20.7694H12.8279C11.7033 20.7679 10.5916 20.5352 9.56497 20.0864C8.53833 19.6376 7.61973 18.9827 6.86881 18.1643C6.11112 17.3464 5.54068 16.3798 5.19558 15.3292C4.85047 14.2786 4.73864 13.168 4.86755 12.0718C5.07332 10.317 5.87805 8.68111 7.15182 7.42833C8.42559 6.17555 10.0941 5.37895 11.8879 5.16713C12.1986 5.13174 12.5118 5.11405 12.8249 5.11405C14.5906 5.11065 16.3068 5.684 17.701 6.74305C17.768 6.79293 17.816 6.8633 17.8373 6.94293C17.8586 7.02256 17.8521 7.10688 17.8187 7.18244C17.7969 7.23289 17.7639 7.278 17.7222 7.31456L16.8721 8.05887C16.7827 8.13677 16.6672 8.1798 16.5475 8.17978C16.4449 8.1797 16.3449 8.14882 16.2609 8.09131C15.4095 7.5089 14.4177 7.15314 13.383 7.05904C12.3483 6.96494 11.3064 7.13572 10.3597 7.5546C9.58285 7.89586 8.88838 8.39346 8.32163 9.01492C7.75101 9.63466 7.32247 10.3665 7.06473 11.1613C6.80699 11.9561 6.726 12.7956 6.82718 13.6235C6.9876 14.9458 7.59894 16.1768 8.56261 17.1178C9.52628 18.0589 10.7861 18.6553 12.1389 18.8107C12.3682 18.8349 12.5993 18.8479 12.8303 18.8479C13.6279 18.8489 14.4176 18.6942 15.1532 18.3929C15.8888 18.0916 16.5554 17.6497 17.114 17.0933C17.1604 17.0473 17.2156 17.0108 17.2765 16.9858C17.3374 16.9608 17.4027 16.9478 17.4688 16.9476C17.5646 16.9475 17.6584 16.975 17.7385 17.0266L18.6821 17.6318C18.7278 17.6615 18.7666 17.7005 18.7957 17.746C18.8249 17.7916 18.8437 17.8427 18.851 17.896C18.8578 17.9493 18.8527 18.0035 18.836 18.0547C18.8194 18.1059 18.7915 18.153 18.7545 18.1926L18.7539 18.1915ZM19.3361 12.0919C18.822 12.0919 18.329 11.8922 17.9656 11.5369C17.6021 11.1816 17.3979 10.6997 17.3979 10.1972C17.3979 9.69465 17.6021 9.21272 17.9656 8.8574C18.329 8.50207 18.822 8.30245 19.3361 8.30245C19.8501 8.30245 20.3431 8.50207 20.7066 8.8574C21.0701 9.21272 21.2743 9.69465 21.2743 10.1972C21.2743 10.6997 21.0701 11.1816 20.7066 11.5369C20.3431 11.8922 19.8501 12.0919 19.3361 12.0919ZM61.9145 9.65425C62.137 9.65457 62.3546 9.5905 62.5399 9.47012C62.7252 9.34973 62.8699 9.17842 62.9558 8.97776C63.0413 8.77696 63.064 8.55589 63.0211 8.34249C62.9781 8.12908 62.8714 7.9329 62.7145 7.77872C62.5969 7.66377 62.4546 7.57573 62.298 7.5209C62.1414 7.46607 61.9744 7.44582 61.8088 7.46161C61.6433 7.4774 61.4834 7.52883 61.3406 7.61221C61.1978 7.69559 61.0756 7.80886 60.9829 7.94386C60.8592 8.1247 60.7931 8.33732 60.7929 8.55488C60.7913 8.77243 60.8561 8.98551 60.9791 9.16685C61.102 9.34819 61.2775 9.48955 61.4831 9.57286C61.6201 9.62771 61.7667 9.65543 61.9145 9.65425ZM44.1976 10.4192C41.8108 10.4192 40.3001 12.2263 40.3001 14.3342C40.3001 16.5029 41.8875 18.3407 44.337 18.3407C46.5554 18.3407 47.7742 16.7736 47.957 15.7497L45.9388 15.5386C45.7615 15.7876 45.5237 15.9896 45.2467 16.1266C44.9697 16.2635 44.6623 16.331 44.3521 16.323C43.1514 16.323 42.673 15.6742 42.6271 15.0727H48.0957V14.4911C48.0957 12.2735 46.617 10.4192 44.1976 10.4192ZM42.6271 13.5239C42.673 12.9364 43.2739 12.4398 44.1976 12.4398C45.1346 12.4398 45.7234 12.9488 45.7693 13.5239H42.6271ZM78.5683 13.6454C76.8741 13.1028 76.4856 13.0579 76.4856 12.7412C76.4856 12.4245 76.9326 12.3048 77.3019 12.3048C77.6717 12.3048 78.2268 12.4398 78.2395 12.9069H80.5816C80.5502 11.5664 79.3321 10.4222 77.2228 10.4222C75.621 10.4222 74.1422 11.295 74.1422 12.7412C74.1422 14.0069 75.113 14.6834 76.5604 15.0756C78.1007 15.4973 78.5948 15.5722 78.5948 15.9921C78.5948 16.3383 78.0548 16.4592 77.6241 16.4592C76.8222 16.4592 76.2835 16.1732 76.237 15.7362H73.9154C73.9612 17.5126 75.4557 18.3419 77.5812 18.3419C79.384 18.3419 80.9243 17.5574 80.9243 16.0364C80.9255 15.1959 80.5098 14.2469 78.5683 13.6454ZM49.1588 18.1926H51.4847V6.89816H49.1588V18.1926ZM60.7585 18.1926H63.0843V10.5726H60.7585V18.1926ZM30.3831 12.8468C30.3831 15.9792 32.8175 18.3442 35.8674 18.3442C37.6237 18.3442 38.6862 17.6211 39.056 17.305V15.029C38.7948 15.3457 37.7938 16.1885 36.1606 16.1885C34.2963 16.1885 32.7095 14.8786 32.7095 12.8456C32.7095 10.8126 34.2963 9.48557 36.1606 9.48557C37.7938 9.48557 38.7948 10.3443 39.056 10.6604V8.38856C38.6862 8.07185 37.6237 7.34876 35.8668 7.34876C32.8139 7.34876 30.3825 9.71382 30.3825 12.8456L30.3831 12.8468ZM57.3129 13.646C55.6181 13.1033 55.2296 13.0585 55.2296 12.7418C55.2296 12.4251 55.676 12.3054 56.0459 12.3054C56.4157 12.3054 56.9702 12.4404 56.9834 12.9075H59.3256C59.2942 11.5669 58.0761 10.4227 55.9668 10.4227C54.3656 10.4227 52.8862 11.2956 52.8862 12.7418C52.8862 14.0075 53.8558 14.684 55.3044 15.0762C56.8447 15.4979 57.3376 15.5728 57.3376 15.9927C57.3376 16.3389 56.7988 16.4598 56.368 16.4598C55.5656 16.4598 55.0274 16.1738 54.9804 15.7368H52.6563C52.7022 17.5132 54.1966 18.3424 56.3222 18.3424C58.1249 18.3424 59.6646 17.558 59.6646 16.037C59.6646 15.1965 59.2496 14.2475 57.3086 13.646H57.3129Z" fill="url(#paint0_linear_142_8727)"/>
<defs>
<linearGradient id="paint0_linear_142_8727" x1="6.43562" y1="27.4411" x2="69.7317" y2="-4.13379" gradientUnits="userSpaceOnUse">
<stop stop-color="#382BC6"/>
<stop offset="1" stop-color="#FF3CAC"/>
</linearGradient>
</defs>
</svg>
