<svg width="88" height="17" viewBox="0 0 88 17" fill="none" xmlns="http://www.w3.org/2000/svg">
<g clip-path="url(#clip0_142_8714)">
<path d="M17.979 5.41498C14.8309 5.41498 12.371 7.88035 12.371 11.1807C12.371 14.4812 14.7687 16.9254 17.979 16.9254C21.1893 16.9254 23.6287 14.439 23.6287 11.1597C23.6287 7.90144 21.231 5.41498 17.979 5.41498ZM18.0003 14.5469C16.2075 14.5469 14.8938 13.1105 14.8938 11.1816C14.8938 9.23069 16.1863 7.79514 17.979 7.79514C19.793 7.79514 21.1059 9.2526 21.1059 11.1816C21.1059 13.1105 19.793 14.5469 18.0003 14.5469ZM24.3162 7.92335H25.88V16.712H28.3815V5.62923H24.3162V7.92335ZM6.07551 7.79432C7.38922 7.79432 8.43151 8.63018 8.8272 9.8734H11.475C10.9952 7.21572 8.8689 5.41498 6.09675 5.41498C2.9486 5.41498 0.48877 7.88035 0.48877 11.1816C0.48877 14.4828 2.88646 16.9262 6.09675 16.9262C8.80674 16.9262 10.9747 15.1255 11.4546 12.4459H8.8272C8.45197 13.6891 7.40966 14.5469 6.09598 14.5469C4.28197 14.5469 3.01074 13.1105 3.01074 11.1816C3.01154 9.23069 4.2623 7.79432 6.07551 7.79432ZM71.8467 10.1095L70.0123 9.8312C69.137 9.703 68.5115 9.40274 68.5115 8.69511C68.5115 7.92335 69.3249 7.53788 70.4293 7.53788C71.6385 7.53788 72.4101 8.07349 72.5768 8.95235H74.9951C74.7237 6.72313 73.0559 5.41578 70.4922 5.41578C67.8443 5.41578 66.0934 6.80916 66.0934 8.78112C66.0934 10.6671 67.2401 11.761 69.5537 12.1034L71.3881 12.3818C72.285 12.51 72.7852 12.8752 72.7852 13.5609C72.7852 14.4398 71.9099 14.8041 70.7007 14.8041C69.2202 14.8041 68.3864 14.1825 68.2614 13.2396H65.8014C66.0312 15.4047 67.6777 16.9262 70.6794 16.9262C73.4108 16.9262 75.2239 15.64 75.2239 13.4319C75.2239 11.4599 73.911 10.4309 71.8467 10.1095ZM27.1307 1.06366C26.2135 1.06366 25.5254 1.74939 25.5254 2.69236C25.5254 3.63533 26.2128 4.32106 27.1307 4.32106C28.0479 4.32106 28.7363 3.63533 28.7363 2.69236C28.7363 1.74939 28.0479 1.06366 27.1307 1.06366ZM63.8419 9.42383C63.8419 7.02338 62.4245 5.41578 59.4225 5.41578C56.5875 5.41578 55.0031 6.89517 54.6901 9.16739H57.1711C57.2962 8.28853 57.9633 7.55979 59.3809 7.55979C60.653 7.55979 61.2783 8.13839 61.2783 8.84605C61.2783 9.76792 60.1313 10.0033 58.7138 10.1534C56.796 10.3676 54.4195 11.0533 54.4195 13.6258C54.4195 15.6197 55.8582 16.9051 58.1515 16.9051C59.944 16.9051 61.0698 16.1334 61.6331 14.9113C61.7165 16.0044 62.5087 16.712 63.6139 16.712H65.0731V14.4187H63.8427V9.42383H63.8419ZM61.382 12.2106C61.382 13.6899 60.1313 14.783 58.6091 14.783C57.6708 14.783 56.8787 14.3757 56.8787 13.5187C56.8787 12.4256 58.1505 12.1253 59.3181 11.9971C60.4438 11.89 61.069 11.6328 61.382 11.1394V12.2106ZM48.1028 5.41498C46.7057 5.41498 45.5383 6.01549 44.7046 7.02258V0.956543H42.203V16.712H44.6627V15.2545C45.4965 16.3046 46.6853 16.9262 48.1028 16.9262C51.1045 16.9262 53.3772 14.4828 53.3772 11.1816C53.3772 7.88035 51.0629 5.41498 48.1028 5.41498ZM47.7276 14.5469C45.9348 14.5469 44.6211 13.1105 44.6211 11.1816C44.6211 9.2526 45.9553 7.79514 47.7479 7.79514C49.562 7.79514 50.8331 9.23152 50.8331 11.1816C50.8331 13.1105 49.5202 14.5469 47.7276 14.5469ZM36.2196 5.41498C34.5937 5.41498 33.5302 6.10071 32.9049 7.06558V5.62923H30.4237V16.7112H32.9252V10.6882C32.9252 8.99454 33.9675 7.79432 35.5102 7.79432C36.9489 7.79432 37.8448 8.84443 37.8448 10.3668V16.712H40.3464V10.1745C40.3473 7.38694 38.951 5.41498 36.2196 5.41498ZM87.1486 10.8172C87.1486 7.645 84.8972 5.41578 81.8742 5.41578C78.6639 5.41578 76.308 7.90226 76.308 11.1816C76.308 14.6329 78.8306 16.9262 81.916 16.9262C84.522 16.9262 86.565 15.3398 87.0857 13.0894H84.4795C84.1043 14.0754 83.1871 14.6329 81.9569 14.6329C80.3513 14.6329 79.1421 13.6039 78.8715 11.8032H87.1479V10.8172H87.1486ZM79.0178 9.95943C79.4145 8.41594 80.5399 7.66611 81.8326 7.66611C83.25 7.66611 84.3341 8.50195 84.5842 9.95943H79.0178Z" fill="#0052FF"/>
</g>
<defs>
<clipPath id="clip0_142_8714">
<rect width="86.8352" height="15.9697" fill="white" transform="translate(0.48877 0.956543)"/>
</clipPath>
</defs>
</svg>
